<svg width="36" height="36" viewBox="0 0 36 36" fill="none" xmlns="http://www.w3.org/2000/svg">
<path fill-rule="evenodd" clip-rule="evenodd" d="M18.2578 29.4344C15.9025 29.4344 14.808 29.1034 12.9054 27.7797C11.702 29.2689 7.89111 30.4327 7.72492 28.4415C7.72492 26.9468 7.38108 25.6837 6.9914 24.3047C6.52722 22.6059 6 20.714 6 17.9727C6 11.4255 11.5816 6.5 18.1948 6.5C24.8137 6.5 29.9999 11.6682 29.9999 18.0334C30.0221 24.3001 24.7687 29.4009 18.2578 29.4344ZM18.3553 12.1591C15.1346 11.9992 12.6246 14.1448 12.0687 17.5094C11.6103 20.2948 12.424 23.687 13.1175 23.8635C13.4498 23.9407 14.2865 23.2899 14.808 22.7879C15.6703 23.3613 16.6745 23.7056 17.7192 23.7863C21.0563 23.9408 23.9077 21.4955 24.1318 18.2871C24.2622 15.0719 21.6928 12.3486 18.3553 12.1646L18.3553 12.1591Z" fill="white"/>
</svg>
