<svg width="33" height="28" viewBox="0 0 33 28" fill="none" xmlns="http://www.w3.org/2000/svg">
<path d="M30 0C28.3432 0 27 1.34315 27 3C27 4.65684 28.3432 6 30 6C31.6569 6 33 4.65684 33 3C33 1.34315 31.6569 3.9581e-07 30 0Z" fill="black"/>
<path fill-rule="evenodd" clip-rule="evenodd" d="M20.374 5.00195H0V28H5.78809V20.5176H16.4561L21.5176 28H28L22.4189 20.4824C24.4764 20.1788 25.4002 19.5512 26.1621 18.5166C26.9241 17.482 27.3066 15.8278 27.3066 13.6201V11.8955C27.3066 10.5864 27.1677 9.55175 26.9248 8.75879C26.6819 7.96575 26.2664 7.27579 25.6768 6.65625C25.0539 6.06972 24.3599 5.65663 23.5273 5.37988C22.6949 5.13834 21.6548 5 20.374 5V5.00195ZM21.0674 10.4521C20.7892 10.2105 20.2348 10.0723 19.4375 10.0723H5.78809V15.4502H19.4375V15.4521C20.2346 15.4521 20.7891 15.3489 21.0674 15.1074C21.3456 14.8658 21.5176 14.4173 21.5176 13.7275V11.7969C21.5176 11.1422 21.3456 10.6938 21.0674 10.4521Z" fill="black"/>
</svg>
