<svg width="30" height="36" viewBox="0 0 30 36" fill="none" xmlns="http://www.w3.org/2000/svg">
<path d="M12.9893 0.0981439C10.4984 0.577958 8.52964 1.55213 6.82932 3.16605C4.6368 5.23071 3.42868 7.70248 3.1453 10.6977C2.93649 13.0386 3.98054 15.9175 6.62051 20.2067C8.76828 23.6818 14.4957 31.1988 15.0028 31.1988C15.2563 31.1988 17.2848 28.7562 19.7458 25.5138C22.9227 21.3118 25.7566 16.4264 26.5023 13.8819C27.3525 10.9303 26.5918 7.28082 24.5634 4.66365C22.2813 1.72661 19.1492 0.127224 15.4502 0.0109049C14.5106 -0.0181748 13.4069 0.0109049 12.9893 0.0981439ZM17.598 6.01586C22.3559 8.18229 22.4156 14.6525 17.7173 16.9062C16.6285 17.4442 16.5241 17.4587 15.0028 17.4587C13.4814 17.4587 13.377 17.4442 12.2882 16.9062C8.42523 15.0596 7.58999 10.2033 10.6028 7.26628C11.3933 6.48113 12.4971 5.85592 13.4665 5.60874C13.7797 5.53604 14.615 5.49242 15.3309 5.5215C16.3899 5.56512 16.7926 5.65236 17.598 6.01586Z" fill="#BFA286"/>
<path d="M8.51473 27.2149C4.21918 27.8401 0.967695 29.1924 0.19211 30.6609C-1.03093 32.9727 3.69715 35.1973 11.1994 35.8371C19.9993 36.5931 29.0677 34.6302 29.9328 31.7659C30.3951 30.2974 28.4562 28.8725 24.6081 27.8401C23.1464 27.4476 20.1783 26.9678 20.0441 27.0986C19.9993 27.1568 19.537 27.7238 19.0299 28.3636L18.12 29.5268L18.6122 29.6576C20.2827 30.0793 20.6705 30.2101 21.1329 30.5155C21.5207 30.7627 21.64 30.9517 21.64 31.2715C21.64 31.8677 20.9688 32.2603 19.2834 32.6674C18.0902 32.9582 17.5234 33.0018 15.0028 33.0018C12.4821 33.0018 11.9154 32.9582 10.752 32.6819C8.38049 32.1003 7.67948 31.3006 8.87269 30.5155C9.33505 30.2101 9.72285 30.0793 11.3933 29.6576L11.8855 29.5268L10.9757 28.3636C10.4686 27.7238 10.0062 27.1568 9.96149 27.1132C9.90183 27.0695 9.26048 27.1132 8.51473 27.2149Z" fill="#BFA286"/>
</svg>
