<svg width="36" height="36" viewBox="0 0 36 36" fill="none" xmlns="http://www.w3.org/2000/svg">
<path d="M28.9485 24.3599C28.6921 24.0744 27.7871 23.2304 26.1233 22.1137C24.4472 20.9873 23.2112 20.285 22.8566 20.1212C22.8253 20.1067 22.7909 20.1014 22.757 20.1058C22.7231 20.1103 22.691 20.1243 22.6641 20.1464C22.093 20.612 21.1314 21.4674 21.0798 21.5136C20.7469 21.8118 20.7469 21.8118 20.4743 21.7189C19.995 21.5546 18.5061 20.7281 17.2086 19.3686C15.9112 18.0091 15.0798 16.4139 14.9226 15.9134C14.8328 15.6279 14.8328 15.6279 15.1191 15.2798C15.1633 15.2259 15.9819 14.2207 16.4273 13.6241C16.4484 13.596 16.4618 13.5624 16.4661 13.527C16.4703 13.4915 16.4652 13.4555 16.4514 13.4228C16.2947 13.0517 15.6229 11.7599 14.5455 10.0077C13.4759 8.2688 12.6695 7.3226 12.3965 7.0546C12.3714 7.02988 12.3405 7.01269 12.3068 7.00483C12.2732 6.99697 12.2382 6.99873 12.2055 7.00994C11.251 7.35283 10.3301 7.79036 9.45539 8.31655C8.61093 8.82976 7.81145 9.41989 7.06626 10.0801C7.04025 10.1032 7.02074 10.1333 7.00984 10.1671C6.99894 10.2009 6.99706 10.2372 7.00438 10.2721C7.10702 10.7722 7.59761 12.8596 9.11997 15.7511C10.6733 18.7022 11.7497 20.2141 14.0308 22.5907C16.3119 24.9672 17.8038 26.1604 20.6295 27.7843C23.3953 29.3758 25.393 29.8892 25.8704 29.9955C25.9038 30.0031 25.9386 30.0011 25.971 29.9897C26.0034 29.9783 26.0323 29.9579 26.0545 29.9308C26.6859 29.1518 27.2502 28.3159 27.7409 27.4331C28.2441 26.5185 28.6626 25.5558 28.9907 24.558C29.0012 24.5241 29.0028 24.4878 28.9954 24.4529C28.988 24.4181 28.9718 24.386 28.9485 24.3599Z" fill="white"/>
</svg>
