<svg width="39" height="36" viewBox="0 0 39 36" fill="none" xmlns="http://www.w3.org/2000/svg">
<path d="M28.3733 0.584615C28.1297 0.907692 27.3682 2.12308 26.6523 3.27692L25.3578 5.38461H15.1233C5.0411 5.38461 4.8888 5.38461 4.72127 5.69231C4.59943 5.90769 4.59943 6.09231 4.72127 6.30769C4.87357 6.61538 5.0411 6.61538 11.3463 6.61538H17.819V12.7385C17.819 18.4923 17.8342 18.8923 18.0931 19.1231C18.4587 19.4615 18.6262 19.4462 18.9308 19.1077C19.1592 18.8462 19.1897 18.1846 19.1897 12.7231V6.61538H26.165L27.9317 3.75385C28.9064 2.18462 29.6983 0.784615 29.6983 0.630769C29.6983 0.292308 29.409 0 29.0587 0C28.9064 0 28.6018 0.261538 28.3733 0.584615Z" fill="#BFA286"/>
<path d="M32.5463 5.49231C32.3483 5.69231 32.4397 6.43077 32.6834 6.52308C32.8205 6.56923 33.9779 6.61539 35.2725 6.61539H37.6179V20H28.9521C21.2762 20 20.2558 20.0308 20.0426 20.2462C19.7227 20.5538 19.738 20.8154 20.073 21.1231C20.3167 21.3538 20.7584 21.3846 23.0429 21.3846H25.7386V24.4C25.7386 26.1692 25.7995 27.5231 25.8909 27.7077C26.0736 28.0308 26.6523 28.0923 26.9265 27.8154C27.0636 27.6769 27.1092 26.7385 27.1092 24.5077V21.3846H37.6179V34.6154H34.9679C32.6072 34.6154 32.2874 34.6462 31.9676 34.9077C31.6478 35.1538 31.6325 35.2462 31.8001 35.6L31.9828 36H35.3029C37.6788 36 38.6687 35.9538 38.8058 35.8154C39.0647 35.5538 39.0647 5.83077 38.8058 5.56923C38.6078 5.36923 32.7291 5.29231 32.5463 5.49231Z" fill="#BFA286"/>
<path d="M0.243679 5.78462C0.0456897 5.98462 0 6.43077 0 8.32308V10.6154H1.00517C2.16265 10.6154 2.58909 10.8 2.58909 11.2769C2.58909 11.8615 2.29972 12 1.11178 12H0V14.6154H1.00517C2.16265 14.6154 2.58909 14.8 2.58909 15.2769C2.58909 15.8615 2.29972 16 1.11178 16H0V18.6154H1.00517C2.16265 18.6154 2.58909 18.8 2.58909 19.2769C2.58909 19.8615 2.29972 20 1.11178 20H0V22.6154H1.00517C2.16265 22.6154 2.58909 22.8 2.58909 23.2769C2.58909 23.8615 2.29972 24 1.11178 24H0V26.6154H1.00517C2.16265 26.6154 2.58909 26.8 2.58909 27.2769C2.58909 27.8615 2.29972 28 1.11178 28H0V30.6154H0.898565C2.0865 30.6154 2.58909 30.8154 2.58909 31.2769C2.58909 31.8615 2.29972 32 1.11178 32H0V33.4462C0 35.3538 0.0304598 35.3846 1.90374 35.3846H3.33535L3.42673 32.8462H4.49282L4.5842 35.3846H7.29513L7.38651 32.8462H8.4526L8.6049 35.3077L11.2549 35.4L11.3463 32.8462H12.4124L12.5647 35.3077L15.2147 35.4L15.3061 32.8462H16.3722L16.5245 35.3077L19.1897 35.4V34.2769C19.1897 32.9538 19.2963 32.7231 19.8903 32.8C20.3319 32.8462 20.3319 32.8615 20.4081 34.0769L20.4842 35.3077L23.1495 35.4V34.3231C23.1495 32.9538 23.2256 32.7692 23.7739 32.7692C24.3374 32.7692 24.5202 33.2 24.5202 34.4769V35.3846H26.7742C29.1348 35.3846 29.3937 35.3231 29.3937 34.6923C29.3937 34.4769 24.7943 29.7385 15.1081 19.9538C7.26467 12.0308 0.761496 5.53846 0.654886 5.53846C0.563507 5.53846 0.365518 5.64615 0.243679 5.78462ZM11.4986 23.8462L17.5906 30H5.33047V23.8462C5.33047 20.4615 5.3457 17.6923 5.37616 17.6923C5.39139 17.6923 8.148 20.4615 11.4986 23.8462Z" fill="#BFA286"/>
<path d="M24.6268 9.49231C24.5658 9.53846 24.5202 9.76923 24.5202 9.98462C24.5202 10.2769 24.9009 10.7692 25.9975 11.8769L27.4748 13.3846L25.9061 15C24.3831 16.5538 24.3374 16.6308 24.5506 16.9538C24.9771 17.6 25.236 17.4769 26.8503 15.8615L28.4038 14.3231L29.942 15.8462C30.7949 16.6923 31.5564 17.3846 31.6478 17.3846C31.9676 17.3846 32.4397 16.7846 32.3331 16.5077C32.2874 16.3538 31.6021 15.5692 30.8253 14.7692L29.3937 13.3077L30.7797 11.9231C32.3788 10.3077 32.5159 10.1231 32.2874 9.69231C31.9676 9.09231 31.5107 9.32308 29.9725 10.8769L28.4799 12.3692L26.9874 10.8769C25.8909 9.8 25.373 9.38462 25.0989 9.38462C24.8857 9.38462 24.6725 9.43077 24.6268 9.49231Z" fill="#BFA286"/>
</svg>
