<svg width="36" height="36" viewBox="0 0 36 36" fill="none" xmlns="http://www.w3.org/2000/svg">
<path d="M5.71837 17.61C12.4305 14.7878 16.9053 12.927 19.1427 12.0281C25.5383 9.46107 26.8656 9.01524 27.7325 9.00013C27.9231 8.99718 28.3476 9.04267 28.6246 9.25881C28.8548 9.4411 28.9195 9.68763 28.9519 9.86072C28.9807 10.0336 29.0203 10.4277 28.9879 10.7354C28.6426 14.2492 27.1426 22.7762 26.38 26.712C26.0599 28.3772 25.4232 28.9356 24.8081 28.9901C23.47 29.1088 22.4556 28.1373 21.1606 27.3182C19.1355 26.0359 17.9916 25.238 16.024 23.987C13.7506 22.5412 15.2255 21.7464 16.5204 20.4478C16.8585 20.1079 22.7505 14.936 22.862 14.4669C22.8764 14.4083 22.8908 14.1895 22.7541 14.0742C22.621 13.9586 22.4232 13.9982 22.2793 14.0294C22.0743 14.0739 18.8405 16.1391 12.5672 20.2249C11.65 20.8339 10.819 21.1308 10.0708 21.1151C9.2507 21.0981 7.66799 20.6665 6.49174 20.2978C5.05291 19.8454 3.90544 19.6061 4.00616 18.8377C4.05652 18.4377 4.62845 18.0284 5.71837 17.61Z" fill="white"/>
</svg>
