<svg aria-hidden="true" xmlns="http://www.w3.org/2000/svg" xmlns:xlink="http://www.w3.org/1999/xlink"><symbol viewBox="0 0 18 18" fill="none" id="icon-arrow-next" xmlns="http://www.w3.org/2000/svg">
<path d="M6 18L9.08829 18L17.9937 9L9.08829 -3.89543e-07L6 -5.24537e-07L13.718 7.8L-3.0981e-08 7.8L-1.35888e-07 10.2L13.718 10.2L6 18Z" fill="currentColor"/>
</symbol><symbol viewBox="0 0 256 256" id="icon-close" xmlns="http://www.w3.org/2000/svg"><rect width="256" height="256" fill="none"/><line x1="200" y1="56" x2="56" y2="200" stroke="currentColor" stroke-linecap="round" stroke-linejoin="round" stroke-width="16"/><line x1="200" y1="200" x2="56" y2="56" stroke="currentColor" stroke-linecap="round" stroke-linejoin="round" stroke-width="16"/></symbol><symbol viewBox="0 0 19 20" fill="none" id="icon-download" xmlns="http://www.w3.org/2000/svg">
<path d="M1 16.0399L1 19H18V16.0399M9.50119 1V13.645M9.50119 13.645L14.3583 8.81337M9.50119 13.645L4.64404 8.81337" stroke="currentColor" stroke-width="2" stroke-linecap="square"/>
</symbol><symbol viewBox="0 0 36 36" fill="none" id="icon-max" xmlns="http://www.w3.org/2000/svg">
<path fill-rule="evenodd" clip-rule="evenodd" d="M18.2578 29.4344C15.9025 29.4344 14.808 29.1034 12.9054 27.7797C11.702 29.2689 7.89111 30.4327 7.72492 28.4415C7.72492 26.9468 7.38108 25.6837 6.9914 24.3047C6.52722 22.6059 6 20.714 6 17.9727C6 11.4255 11.5816 6.5 18.1948 6.5C24.8137 6.5 29.9999 11.6682 29.9999 18.0334C30.0221 24.3001 24.7687 29.4009 18.2578 29.4344ZM18.3553 12.1591C15.1346 11.9992 12.6246 14.1448 12.0687 17.5094C11.6103 20.2948 12.424 23.687 13.1175 23.8635C13.4498 23.9407 14.2865 23.2899 14.808 22.7879C15.6703 23.3613 16.6745 23.7056 17.7192 23.7863C21.0563 23.9408 23.9077 21.4955 24.1318 18.2871C24.2622 15.0719 21.6928 12.3486 18.3553 12.1646L18.3553 12.1591Z" fill="currentColor"/>
</symbol><symbol viewBox="0 0 10 30" fill="none" id="icon-next" xmlns="http://www.w3.org/2000/svg">
<path d="M7.42118 15L-1.90735e-06 30L2.57358 30L9.99473 15L2.57358 -3.24619e-07L-5.96007e-07 -4.37114e-07L7.42118 15Z" fill="currentColor"/>
</symbol><symbol viewBox="0 0 35 35" fill="none" id="icon-play" xmlns="http://www.w3.org/2000/svg">
<path d="M35 17.5L8.75 32.6554L8.75 2.34455L35 17.5Z" fill="currentColor"/>
</symbol><symbol viewBox="0 0 10 30" fill="none" id="icon-prev" xmlns="http://www.w3.org/2000/svg">
<path d="M2.57354 15L9.99472 30L7.42114 30L-8.45968e-06 15L7.42114 5.31715e-07L9.99472 4.19221e-07L2.57354 15Z" fill="currentColor"/>
</symbol><symbol viewBox="0 0 33 28" fill="none" id="icon-rt" xmlns="http://www.w3.org/2000/svg">
<path d="M30 0C28.3432 0 27 1.34315 27 3C27 4.65684 28.3432 6 30 6C31.6569 6 33 4.65684 33 3C33 1.34315 31.6569 3.9581e-07 30 0Z" fill="currentColor"/>
<path fill-rule="evenodd" clip-rule="evenodd" d="M20.374 5.00195H0V28H5.78809V20.5176H16.4561L21.5176 28H28L22.4189 20.4824C24.4764 20.1788 25.4002 19.5512 26.1621 18.5166C26.9241 17.482 27.3066 15.8278 27.3066 13.6201V11.8955C27.3066 10.5864 27.1677 9.55175 26.9248 8.75879C26.6819 7.96575 26.2664 7.27579 25.6768 6.65625C25.0539 6.06972 24.3599 5.65663 23.5273 5.37988C22.6949 5.13834 21.6548 5 20.374 5V5.00195ZM21.0674 10.4521C20.7892 10.2105 20.2348 10.0723 19.4375 10.0723H5.78809V15.4502H19.4375V15.4521C20.2346 15.4521 20.7891 15.3489 21.0674 15.1074C21.3456 14.8658 21.5176 14.4173 21.5176 13.7275V11.7969C21.5176 11.1422 21.3456 10.6938 21.0674 10.4521Z" fill="currentColor"/>
</symbol><symbol viewBox="0 0 36 36" fill="none" id="icon-tel" xmlns="http://www.w3.org/2000/svg">
<path d="M28.9485 24.3599C28.6921 24.0744 27.7871 23.2304 26.1233 22.1137C24.4472 20.9873 23.2112 20.285 22.8566 20.1212C22.8253 20.1067 22.7909 20.1014 22.757 20.1058C22.7231 20.1103 22.691 20.1243 22.6641 20.1464C22.093 20.612 21.1314 21.4674 21.0798 21.5136C20.7469 21.8118 20.7469 21.8118 20.4743 21.7189C19.995 21.5546 18.5061 20.7281 17.2086 19.3686C15.9112 18.0091 15.0798 16.4139 14.9226 15.9134C14.8328 15.6279 14.8328 15.6279 15.1191 15.2798C15.1633 15.2259 15.9819 14.2207 16.4273 13.6241C16.4484 13.596 16.4618 13.5624 16.4661 13.527C16.4703 13.4915 16.4652 13.4555 16.4514 13.4228C16.2947 13.0517 15.6229 11.7599 14.5455 10.0077C13.4759 8.2688 12.6695 7.3226 12.3965 7.0546C12.3714 7.02988 12.3405 7.01269 12.3068 7.00483C12.2732 6.99697 12.2382 6.99873 12.2055 7.00994C11.251 7.35283 10.3301 7.79036 9.45539 8.31655C8.61093 8.82976 7.81145 9.41989 7.06626 10.0801C7.04025 10.1032 7.02074 10.1333 7.00984 10.1671C6.99894 10.2009 6.99706 10.2372 7.00438 10.2721C7.10702 10.7722 7.59761 12.8596 9.11997 15.7511C10.6733 18.7022 11.7497 20.2141 14.0308 22.5907C16.3119 24.9672 17.8038 26.1604 20.6295 27.7843C23.3953 29.3758 25.393 29.8892 25.8704 29.9955C25.9038 30.0031 25.9386 30.0011 25.971 29.9897C26.0034 29.9783 26.0323 29.9579 26.0545 29.9308C26.6859 29.1518 27.2502 28.3159 27.7409 27.4331C28.2441 26.5185 28.6626 25.5558 28.9907 24.558C29.0012 24.5241 29.0028 24.4878 28.9954 24.4529C28.988 24.4181 28.9718 24.386 28.9485 24.3599Z" fill="currentColor"/>
</symbol><symbol viewBox="0 0 36 36" fill="none" id="icon-tg" xmlns="http://www.w3.org/2000/svg">
<path d="M5.71837 17.61C12.4305 14.7878 16.9053 12.927 19.1427 12.0281C25.5383 9.46107 26.8656 9.01524 27.7325 9.00013C27.9231 8.99718 28.3476 9.04267 28.6246 9.25881C28.8548 9.4411 28.9195 9.68763 28.9519 9.86072C28.9807 10.0336 29.0203 10.4277 28.9879 10.7354C28.6426 14.2492 27.1426 22.7762 26.38 26.712C26.0599 28.3772 25.4232 28.9356 24.8081 28.9901C23.47 29.1088 22.4556 28.1373 21.1606 27.3182C19.1355 26.0359 17.9916 25.238 16.024 23.987C13.7506 22.5412 15.2255 21.7464 16.5204 20.4478C16.8585 20.1079 22.7505 14.936 22.862 14.4669C22.8764 14.4083 22.8908 14.1895 22.7541 14.0742C22.621 13.9586 22.4232 13.9982 22.2793 14.0294C22.0743 14.0739 18.8405 16.1391 12.5672 20.2249C11.65 20.8339 10.819 21.1308 10.0708 21.1151C9.2507 21.0981 7.66799 20.6665 6.49174 20.2978C5.05291 19.8454 3.90544 19.6061 4.00616 18.8377C4.05652 18.4377 4.62845 18.0284 5.71837 17.61Z" fill="currentColor"/>
</symbol></svg>