<svg aria-hidden="true" xmlns="http://www.w3.org/2000/svg" xmlns:xlink="http://www.w3.org/1999/xlink"><symbol viewBox="0 0 18 18" fill="none" id="icon-arrow-next" xmlns="http://www.w3.org/2000/svg">
<path d="M6 18L9.08829 18L17.9937 9L9.08829 -3.89543e-07L6 -5.24537e-07L13.718 7.8L-3.0981e-08 7.8L-1.35888e-07 10.2L13.718 10.2L6 18Z" fill="currentColor"/>
</symbol><symbol viewBox="0 0 256 256" id="icon-close" xmlns="http://www.w3.org/2000/svg"><rect width="256" height="256" fill="none"/><line x1="200" y1="56" x2="56" y2="200" stroke="currentColor" stroke-linecap="round" stroke-linejoin="round" stroke-width="16"/><line x1="200" y1="200" x2="56" y2="56" stroke="currentColor" stroke-linecap="round" stroke-linejoin="round" stroke-width="16"/></symbol><symbol viewBox="0 0 19 20" fill="none" id="icon-download" xmlns="http://www.w3.org/2000/svg">
<path d="M1 16.0399L1 19H18V16.0399M9.50119 1V13.645M9.50119 13.645L14.3583 8.81337M9.50119 13.645L4.64404 8.81337" stroke="currentColor" stroke-width="2" stroke-linecap="square"/>
</symbol><symbol viewBox="0 0 39 36" fill="none" id="icon-layout" xmlns="http://www.w3.org/2000/svg">
<path d="M28.3733 0.584615C28.1297 0.907692 27.3682 2.12308 26.6523 3.27692L25.3578 5.38461H15.1233C5.0411 5.38461 4.8888 5.38461 4.72127 5.69231C4.59943 5.90769 4.59943 6.09231 4.72127 6.30769C4.87357 6.61538 5.0411 6.61538 11.3463 6.61538H17.819V12.7385C17.819 18.4923 17.8342 18.8923 18.0931 19.1231C18.4587 19.4615 18.6262 19.4462 18.9308 19.1077C19.1592 18.8462 19.1897 18.1846 19.1897 12.7231V6.61538H26.165L27.9317 3.75385C28.9064 2.18462 29.6983 0.784615 29.6983 0.630769C29.6983 0.292308 29.409 0 29.0587 0C28.9064 0 28.6018 0.261538 28.3733 0.584615Z" fill="currentColor"/>
<path d="M32.5463 5.49231C32.3483 5.69231 32.4397 6.43077 32.6834 6.52308C32.8205 6.56923 33.9779 6.61539 35.2725 6.61539H37.6179V20H28.9521C21.2762 20 20.2558 20.0308 20.0426 20.2462C19.7227 20.5538 19.738 20.8154 20.073 21.1231C20.3167 21.3538 20.7584 21.3846 23.0429 21.3846H25.7386V24.4C25.7386 26.1692 25.7995 27.5231 25.8909 27.7077C26.0736 28.0308 26.6523 28.0923 26.9265 27.8154C27.0636 27.6769 27.1092 26.7385 27.1092 24.5077V21.3846H37.6179V34.6154H34.9679C32.6072 34.6154 32.2874 34.6462 31.9676 34.9077C31.6478 35.1538 31.6325 35.2462 31.8001 35.6L31.9828 36H35.3029C37.6788 36 38.6687 35.9538 38.8058 35.8154C39.0647 35.5538 39.0647 5.83077 38.8058 5.56923C38.6078 5.36923 32.7291 5.29231 32.5463 5.49231Z" fill="currentColor"/>
<path d="M0.243679 5.78462C0.0456897 5.98462 0 6.43077 0 8.32308V10.6154H1.00517C2.16265 10.6154 2.58909 10.8 2.58909 11.2769C2.58909 11.8615 2.29972 12 1.11178 12H0V14.6154H1.00517C2.16265 14.6154 2.58909 14.8 2.58909 15.2769C2.58909 15.8615 2.29972 16 1.11178 16H0V18.6154H1.00517C2.16265 18.6154 2.58909 18.8 2.58909 19.2769C2.58909 19.8615 2.29972 20 1.11178 20H0V22.6154H1.00517C2.16265 22.6154 2.58909 22.8 2.58909 23.2769C2.58909 23.8615 2.29972 24 1.11178 24H0V26.6154H1.00517C2.16265 26.6154 2.58909 26.8 2.58909 27.2769C2.58909 27.8615 2.29972 28 1.11178 28H0V30.6154H0.898565C2.0865 30.6154 2.58909 30.8154 2.58909 31.2769C2.58909 31.8615 2.29972 32 1.11178 32H0V33.4462C0 35.3538 0.0304598 35.3846 1.90374 35.3846H3.33535L3.42673 32.8462H4.49282L4.5842 35.3846H7.29513L7.38651 32.8462H8.4526L8.6049 35.3077L11.2549 35.4L11.3463 32.8462H12.4124L12.5647 35.3077L15.2147 35.4L15.3061 32.8462H16.3722L16.5245 35.3077L19.1897 35.4V34.2769C19.1897 32.9538 19.2963 32.7231 19.8903 32.8C20.3319 32.8462 20.3319 32.8615 20.4081 34.0769L20.4842 35.3077L23.1495 35.4V34.3231C23.1495 32.9538 23.2256 32.7692 23.7739 32.7692C24.3374 32.7692 24.5202 33.2 24.5202 34.4769V35.3846H26.7742C29.1348 35.3846 29.3937 35.3231 29.3937 34.6923C29.3937 34.4769 24.7943 29.7385 15.1081 19.9538C7.26467 12.0308 0.761496 5.53846 0.654886 5.53846C0.563507 5.53846 0.365518 5.64615 0.243679 5.78462ZM11.4986 23.8462L17.5906 30H5.33047V23.8462C5.33047 20.4615 5.3457 17.6923 5.37616 17.6923C5.39139 17.6923 8.148 20.4615 11.4986 23.8462Z" fill="currentColor"/>
<path d="M24.6268 9.49231C24.5658 9.53846 24.5202 9.76923 24.5202 9.98462C24.5202 10.2769 24.9009 10.7692 25.9975 11.8769L27.4748 13.3846L25.9061 15C24.3831 16.5538 24.3374 16.6308 24.5506 16.9538C24.9771 17.6 25.236 17.4769 26.8503 15.8615L28.4038 14.3231L29.942 15.8462C30.7949 16.6923 31.5564 17.3846 31.6478 17.3846C31.9676 17.3846 32.4397 16.7846 32.3331 16.5077C32.2874 16.3538 31.6021 15.5692 30.8253 14.7692L29.3937 13.3077L30.7797 11.9231C32.3788 10.3077 32.5159 10.1231 32.2874 9.69231C31.9676 9.09231 31.5107 9.32308 29.9725 10.8769L28.4799 12.3692L26.9874 10.8769C25.8909 9.8 25.373 9.38462 25.0989 9.38462C24.8857 9.38462 24.6725 9.43077 24.6268 9.49231Z" fill="currentColor"/>
</symbol><symbol viewBox="0 0 30 36" fill="none" id="icon-location" xmlns="http://www.w3.org/2000/svg">
<path d="M12.9893 0.0981439C10.4984 0.577958 8.52964 1.55213 6.82932 3.16605C4.6368 5.23071 3.42868 7.70248 3.1453 10.6977C2.93649 13.0386 3.98054 15.9175 6.62051 20.2067C8.76828 23.6818 14.4957 31.1988 15.0028 31.1988C15.2563 31.1988 17.2848 28.7562 19.7458 25.5138C22.9227 21.3118 25.7566 16.4264 26.5023 13.8819C27.3525 10.9303 26.5918 7.28082 24.5634 4.66365C22.2813 1.72661 19.1492 0.127224 15.4502 0.0109049C14.5106 -0.0181748 13.4069 0.0109049 12.9893 0.0981439ZM17.598 6.01586C22.3559 8.18229 22.4156 14.6525 17.7173 16.9062C16.6285 17.4442 16.5241 17.4587 15.0028 17.4587C13.4814 17.4587 13.377 17.4442 12.2882 16.9062C8.42523 15.0596 7.58999 10.2033 10.6028 7.26628C11.3933 6.48113 12.4971 5.85592 13.4665 5.60874C13.7797 5.53604 14.615 5.49242 15.3309 5.5215C16.3899 5.56512 16.7926 5.65236 17.598 6.01586Z" fill="currentColor"/>
<path d="M8.51473 27.2149C4.21918 27.8401 0.967695 29.1924 0.19211 30.6609C-1.03093 32.9727 3.69715 35.1973 11.1994 35.8371C19.9993 36.5931 29.0677 34.6302 29.9328 31.7659C30.3951 30.2974 28.4562 28.8725 24.6081 27.8401C23.1464 27.4476 20.1783 26.9678 20.0441 27.0986C19.9993 27.1568 19.537 27.7238 19.0299 28.3636L18.12 29.5268L18.6122 29.6576C20.2827 30.0793 20.6705 30.2101 21.1329 30.5155C21.5207 30.7627 21.64 30.9517 21.64 31.2715C21.64 31.8677 20.9688 32.2603 19.2834 32.6674C18.0902 32.9582 17.5234 33.0018 15.0028 33.0018C12.4821 33.0018 11.9154 32.9582 10.752 32.6819C8.38049 32.1003 7.67948 31.3006 8.87269 30.5155C9.33505 30.2101 9.72285 30.0793 11.3933 29.6576L11.8855 29.5268L10.9757 28.3636C10.4686 27.7238 10.0062 27.1568 9.96149 27.1132C9.90183 27.0695 9.26048 27.1132 8.51473 27.2149Z" fill="currentColor"/>
</symbol><symbol viewBox="0 0 36 36" fill="none" id="icon-max" xmlns="http://www.w3.org/2000/svg">
<path fill-rule="evenodd" clip-rule="evenodd" d="M18.2578 29.4344C15.9025 29.4344 14.808 29.1034 12.9054 27.7797C11.702 29.2689 7.89111 30.4327 7.72492 28.4415C7.72492 26.9468 7.38108 25.6837 6.9914 24.3047C6.52722 22.6059 6 20.714 6 17.9727C6 11.4255 11.5816 6.5 18.1948 6.5C24.8137 6.5 29.9999 11.6682 29.9999 18.0334C30.0221 24.3001 24.7687 29.4009 18.2578 29.4344ZM18.3553 12.1591C15.1346 11.9992 12.6246 14.1448 12.0687 17.5094C11.6103 20.2948 12.424 23.687 13.1175 23.8635C13.4498 23.9407 14.2865 23.2899 14.808 22.7879C15.6703 23.3613 16.6745 23.7056 17.7192 23.7863C21.0563 23.9408 23.9077 21.4955 24.1318 18.2871C24.2622 15.0719 21.6928 12.3486 18.3553 12.1646L18.3553 12.1591Z" fill="currentColor"/>
</symbol><symbol viewBox="0 0 10 30" fill="none" id="icon-next" xmlns="http://www.w3.org/2000/svg">
<path d="M7.42118 15L-1.90735e-06 30L2.57358 30L9.99473 15L2.57358 -3.24619e-07L-5.96007e-07 -4.37114e-07L7.42118 15Z" fill="currentColor"/>
</symbol><symbol viewBox="0 0 35 35" fill="none" id="icon-play" xmlns="http://www.w3.org/2000/svg">
<path d="M35 17.5L8.75 32.6554L8.75 2.34455L35 17.5Z" fill="currentColor"/>
</symbol><symbol viewBox="0 0 10 30" fill="none" id="icon-prev" xmlns="http://www.w3.org/2000/svg">
<path d="M2.57354 15L9.99472 30L7.42114 30L-8.45968e-06 15L7.42114 5.31715e-07L9.99472 4.19221e-07L2.57354 15Z" fill="currentColor"/>
</symbol><symbol viewBox="0 0 33 28" fill="none" id="icon-rt" xmlns="http://www.w3.org/2000/svg">
<path d="M30 0C28.3432 0 27 1.34315 27 3C27 4.65684 28.3432 6 30 6C31.6569 6 33 4.65684 33 3C33 1.34315 31.6569 3.9581e-07 30 0Z" fill="currentColor"/>
<path fill-rule="evenodd" clip-rule="evenodd" d="M20.374 5.00195H0V28H5.78809V20.5176H16.4561L21.5176 28H28L22.4189 20.4824C24.4764 20.1788 25.4002 19.5512 26.1621 18.5166C26.9241 17.482 27.3066 15.8278 27.3066 13.6201V11.8955C27.3066 10.5864 27.1677 9.55175 26.9248 8.75879C26.6819 7.96575 26.2664 7.27579 25.6768 6.65625C25.0539 6.06972 24.3599 5.65663 23.5273 5.37988C22.6949 5.13834 21.6548 5 20.374 5V5.00195ZM21.0674 10.4521C20.7892 10.2105 20.2348 10.0723 19.4375 10.0723H5.78809V15.4502H19.4375V15.4521C20.2346 15.4521 20.7891 15.3489 21.0674 15.1074C21.3456 14.8658 21.5176 14.4173 21.5176 13.7275V11.7969C21.5176 11.1422 21.3456 10.6938 21.0674 10.4521Z" fill="currentColor"/>
</symbol><symbol viewBox="0 0 36 36" fill="none" id="icon-tel" xmlns="http://www.w3.org/2000/svg">
<path d="M28.9485 24.3599C28.6921 24.0744 27.7871 23.2304 26.1233 22.1137C24.4472 20.9873 23.2112 20.285 22.8566 20.1212C22.8253 20.1067 22.7909 20.1014 22.757 20.1058C22.7231 20.1103 22.691 20.1243 22.6641 20.1464C22.093 20.612 21.1314 21.4674 21.0798 21.5136C20.7469 21.8118 20.7469 21.8118 20.4743 21.7189C19.995 21.5546 18.5061 20.7281 17.2086 19.3686C15.9112 18.0091 15.0798 16.4139 14.9226 15.9134C14.8328 15.6279 14.8328 15.6279 15.1191 15.2798C15.1633 15.2259 15.9819 14.2207 16.4273 13.6241C16.4484 13.596 16.4618 13.5624 16.4661 13.527C16.4703 13.4915 16.4652 13.4555 16.4514 13.4228C16.2947 13.0517 15.6229 11.7599 14.5455 10.0077C13.4759 8.2688 12.6695 7.3226 12.3965 7.0546C12.3714 7.02988 12.3405 7.01269 12.3068 7.00483C12.2732 6.99697 12.2382 6.99873 12.2055 7.00994C11.251 7.35283 10.3301 7.79036 9.45539 8.31655C8.61093 8.82976 7.81145 9.41989 7.06626 10.0801C7.04025 10.1032 7.02074 10.1333 7.00984 10.1671C6.99894 10.2009 6.99706 10.2372 7.00438 10.2721C7.10702 10.7722 7.59761 12.8596 9.11997 15.7511C10.6733 18.7022 11.7497 20.2141 14.0308 22.5907C16.3119 24.9672 17.8038 26.1604 20.6295 27.7843C23.3953 29.3758 25.393 29.8892 25.8704 29.9955C25.9038 30.0031 25.9386 30.0011 25.971 29.9897C26.0034 29.9783 26.0323 29.9579 26.0545 29.9308C26.6859 29.1518 27.2502 28.3159 27.7409 27.4331C28.2441 26.5185 28.6626 25.5558 28.9907 24.558C29.0012 24.5241 29.0028 24.4878 28.9954 24.4529C28.988 24.4181 28.9718 24.386 28.9485 24.3599Z" fill="currentColor"/>
</symbol><symbol viewBox="0 0 36 36" fill="none" id="icon-tg" xmlns="http://www.w3.org/2000/svg">
<path d="M5.71837 17.61C12.4305 14.7878 16.9053 12.927 19.1427 12.0281C25.5383 9.46107 26.8656 9.01524 27.7325 9.00013C27.9231 8.99718 28.3476 9.04267 28.6246 9.25881C28.8548 9.4411 28.9195 9.68763 28.9519 9.86072C28.9807 10.0336 29.0203 10.4277 28.9879 10.7354C28.6426 14.2492 27.1426 22.7762 26.38 26.712C26.0599 28.3772 25.4232 28.9356 24.8081 28.9901C23.47 29.1088 22.4556 28.1373 21.1606 27.3182C19.1355 26.0359 17.9916 25.238 16.024 23.987C13.7506 22.5412 15.2255 21.7464 16.5204 20.4478C16.8585 20.1079 22.7505 14.936 22.862 14.4669C22.8764 14.4083 22.8908 14.1895 22.7541 14.0742C22.621 13.9586 22.4232 13.9982 22.2793 14.0294C22.0743 14.0739 18.8405 16.1391 12.5672 20.2249C11.65 20.8339 10.819 21.1308 10.0708 21.1151C9.2507 21.0981 7.66799 20.6665 6.49174 20.2978C5.05291 19.8454 3.90544 19.6061 4.00616 18.8377C4.05652 18.4377 4.62845 18.0284 5.71837 17.61Z" fill="currentColor"/>
</symbol></svg>