<svg width="100" height="101" viewBox="0 0 100 101" fill="none" xmlns="http://www.w3.org/2000/svg">
<path fill-rule="evenodd" clip-rule="evenodd" d="M50.0318 0L0 49.6032L3.77414 53.3447L50.0318 7.4834V0ZM50.0318 14.2185L7.17078 56.7123L10.9447 60.4541L50.0318 21.7017V14.2185ZM50.0318 28.4368L14.3414 63.8216L18.1153 67.5632L50.0318 35.9202V28.4368ZM50.0318 42.6552L21.5119 70.9308L25.2861 74.6724L50.0318 50.1386V42.6552ZM50.0318 56.8737L28.6827 78.0399L32.4566 81.7817L50.0318 64.3569V56.8737ZM50.0318 71.092L35.8533 85.1493L39.6272 88.8909L50.0318 78.5754V71.092ZM50.0318 85.3105L43.0238 92.2584L46.798 96L50.0318 92.7939V85.3105Z" fill="#F2ECE7"/>
<path fill-rule="evenodd" clip-rule="evenodd" d="M50.0318 0L100 49.5172L96.2261 53.2588L50.0318 7.4834V0ZM50.0318 14.2185L92.8294 56.6263L89.0555 60.3679L50.0318 21.7017V14.2185ZM50.0318 28.4368L85.6589 63.7355L81.8847 67.4773L50.0318 35.9202V28.4368ZM50.0318 42.6552L78.4881 70.8448L74.7141 74.5864L50.0318 50.1386V42.6552ZM50.0318 56.8737L71.3175 77.954L67.5436 81.6955L50.0318 64.3569V56.8737ZM50.0318 71.092L64.1469 85.0631L60.3728 88.8049L50.0318 78.5754V71.092ZM50.0318 85.3105L56.9761 92.1724L53.2022 95.914L50.0318 92.7939V85.3105Z" fill="#F2ECE7"/>
<path d="M68.5703 45.7477C64.2578 48.8305 40.4219 67.0703 40.2344 67.4206C40.0937 67.6541 40 68.0745 40 68.308C40 68.962 44.1953 74.4736 44.5469 74.2634C44.6875 74.17 50.3359 69.9195 57.0625 64.8049C66.5078 57.6584 69.4844 55.5098 70 55.5098C70.5156 55.5098 73.4922 57.6584 82.9375 64.8049C89.6641 69.9195 95.3125 74.17 95.4531 74.2634C95.8047 74.4736 100 68.962 100 68.308C100 68.0745 99.9063 67.6541 99.7656 67.4206C99.6484 67.187 93.4375 62.376 86.0078 56.7243C70.1875 44.7668 70.5156 45.0003 70 45.0003C69.7891 45.0003 69.1328 45.3273 68.5703 45.7477Z" fill="#BFA286"/>
<path d="M59.1719 67.6074L48.4375 75.7114V87.2952C48.4375 98.3652 48.4609 98.9257 48.8828 99.4395L49.3281 100H90.6719L91.1172 99.4395C91.5391 98.9257 91.5625 98.3652 91.5625 87.2952V75.7114L80.8984 67.6541C75.0391 63.2168 70.1641 59.5735 70.0703 59.5501C69.9531 59.5034 65.0547 63.1467 59.1719 67.6074ZM64.7031 70.5501C65.8516 71.0172 67.3281 72.4418 67.8672 73.5861C68.4531 74.7539 68.5234 77.066 68.0313 78.257C67.5625 79.4014 66.0391 80.9661 64.9609 81.4566C63.7188 82.0404 61.2813 82.0404 60.0391 81.4566C55.4453 79.378 55.4453 72.7454 60.0391 70.6668C61.1875 70.153 63.6016 70.083 64.7031 70.5501ZM76.7969 70.7369C77.0547 71.0172 77.2656 71.4842 77.2656 71.7879C77.2656 72.3484 66.5547 91.1954 65.7109 92.1062C64.7266 93.1805 62.7344 92.4799 62.7344 91.0786C62.7344 90.5415 73.6797 71.2507 74.3828 70.5501C74.8984 70.0363 76.2344 70.1297 76.7969 70.7369ZM79.9609 81.4332C83.6875 82.998 84.6016 88.0892 81.6953 90.9852C80.5703 92.1296 79.2812 92.6434 77.5469 92.6434C75.7891 92.6434 74.8281 92.2697 73.5625 91.1253C72.2266 89.9342 71.6406 88.6264 71.6406 86.8515C71.6406 85.0999 72.0156 84.1423 73.1875 82.8345C74.9922 80.8494 77.4297 80.3356 79.9609 81.4332Z" fill="#BFA286"/>
<path d="M60.7656 74.4036C58.5859 76.6689 61.9375 79.9385 64.1641 77.7199C65.6875 76.1785 64.6328 73.7263 62.4531 73.7263C61.6094 73.7263 61.2813 73.8664 60.7656 74.4036Z" fill="#BFA286"/>
<path d="M76.6562 84.5861C74.2422 85.6137 74.875 89.1402 77.4766 89.1402C78.1797 89.1402 78.625 88.9767 79.1641 88.4863C81.1094 86.758 79.0234 83.5585 76.6562 84.5861Z" fill="#BFA286"/>
</svg>
