<svg width="415" height="180" viewBox="0 0 415 180" fill="none" xmlns="http://www.w3.org/2000/svg">
<path d="M335.568 73.6672L326.185 83.9435V73.6672H319.395V99.6086H326.185V88.6869L336.228 99.6086H345L332.646 86.0164L344.105 73.6672H335.568Z" fill="#EF3124"/>
<path d="M307.423 83.3422H298.04V73.6672H291.246V99.6086H298.04V89.3804H307.423V99.6086H314.213V73.6672H307.423V83.3422Z" fill="#EF3124"/>
<mask id="mask0_62_1038" style="mask-type:luminance" maskUnits="userSpaceOnUse" x="70" y="63" width="275" height="54">
<path d="M345 63H70V117H345V63Z" fill="white"/>
</mask>
<g mask="url(#mask0_62_1038)">
<path d="M110.318 87.7205C110.156 92.5599 109.518 93.5263 106.732 93.5263V99.6086H107.77C114.711 99.6086 116.38 96.1045 116.636 88.3181L116.919 79.7017H123.426V99.6086H130.216V73.6672H110.79L110.318 87.7205Z" fill="#EF3124"/>
<path d="M147.095 81.5459H142.192V73.6672H135.402V99.6086H147.19C154.595 99.6086 157.233 94.9095 157.233 90.4832C157.233 84.7697 153.553 81.5422 147.095 81.5422M146.578 93.8914H142.192V87.3H146.578C148.937 87.3 150.349 88.3144 150.349 90.4795C150.349 92.8291 148.982 93.8914 146.578 93.8914Z" fill="#EF3124"/>
<path d="M179.347 73.066V63.4353H172.557V73.066C164.778 73.7115 159.543 79.1042 159.543 86.614C159.543 94.1238 164.778 99.5644 172.557 100.21V109.981H179.347V100.21C187.126 99.6124 192.361 94.1718 192.361 86.614C192.361 79.0562 187.126 73.6636 179.347 73.066ZM172.557 93.9431C168.786 93.4341 166.427 90.6714 166.427 86.6177C166.427 82.564 168.786 79.7976 172.557 79.2923V93.9468V93.9431ZM179.347 93.9431V79.2886C183.118 79.7939 185.477 82.5603 185.477 86.614C185.477 90.6677 183.118 93.4341 179.347 93.9394" fill="#EF3124"/>
<path d="M217.828 91.6376V82.929C217.828 76.57 213.68 72.5605 206.701 72.5605C199.722 72.5605 195.668 76.8024 195.336 81.2249H202.221C202.455 80.2585 203.493 78.5987 206.701 78.5987C209.343 78.5987 211.038 79.7974 211.038 82.929H204.293C198.258 82.929 194.672 86.0163 194.672 91.1765C194.672 96.3368 198.593 100.254 204.244 100.254C208.388 100.254 210.69 98.3396 211.694 96.8901C212.589 98.6421 214.57 99.6085 217.163 99.6085H219.522V93.6183C218.296 93.6183 217.824 93.0651 217.824 91.6376M211.034 89.9335C211.034 92.9286 208.863 94.6327 206.036 94.6327C203.583 94.6327 201.651 93.7585 201.651 91.1765C201.651 88.5946 203.772 88.2294 205.61 88.2294H211.034V89.9335Z" fill="#EF3124"/>
<path d="M246.924 77.3521H239.333V70.0267H256.922V63.4353H232.215V99.6087H246.927C255.084 99.6087 259.753 95.6472 259.753 88.366C259.753 81.5017 255.084 77.3521 246.927 77.3521M246.599 93.0652H239.337V83.6632H246.599C250.37 83.6632 252.494 85.3673 252.494 88.3624C252.494 91.3574 250.373 93.0615 246.599 93.0615" fill="#EF3124"/>
<path d="M285.732 91.6376V82.929C285.732 76.57 281.584 72.5605 274.605 72.5605C267.626 72.5605 263.573 76.8024 263.24 81.2249H270.125C270.359 80.2585 271.397 78.5987 274.605 78.5987C277.247 78.5987 278.942 79.7974 278.942 82.929H272.197C266.162 82.929 262.576 86.0163 262.576 91.1765C262.576 96.3368 266.498 100.254 272.148 100.254C276.292 100.254 278.595 98.3396 279.599 96.8901C280.493 98.6421 282.475 99.6085 285.068 99.6085H287.427V93.6183C286.2 93.6183 285.728 93.0651 285.728 91.6376M278.938 89.9335C278.938 92.9286 276.768 94.6327 273.941 94.6327C271.487 94.6327 269.555 93.7585 269.555 91.1765C269.555 88.5946 271.676 88.2294 273.514 88.2294H278.938V89.9335Z" fill="#EF3124"/>
<path d="M106.309 109.627H70V117H106.309V109.627Z" fill="#EF3124"/>
<path d="M94.7551 68.4C93.7171 65.3828 92.5244 63 88.4368 63C84.3492 63 83.0772 65.3717 81.9902 68.4L70.7539 99.6086H78.2045L80.7975 92.191H95.1325L97.5368 99.6086H105.459L94.7551 68.4ZM82.9677 85.9242L88.0594 71.1332H88.2481L93.0566 85.9242H82.964H82.9677Z" fill="#EF3124"/>
</g>
</svg>
