<svg width="100" height="100" viewBox="0 0 100 100" fill="none" xmlns="http://www.w3.org/2000/svg">
<path d="M30.1563 22.8983C19.6875 28.9079 10.8438 34.0768 10.5625 34.4505C9.78125 35.3535 9.875 36.4122 10.7188 37.4086C11.2188 37.9691 11.7813 38.2493 12.4063 38.2493C13.0625 38.2493 18.8438 35.1355 31.6875 27.8181L50.0625 17.3557L68.375 27.8181C80.5312 34.7619 86.9688 38.2493 87.5625 38.2493C89.4375 38.2493 90.625 36.0385 89.5313 34.5128C88.875 33.6098 50.9062 12 49.9688 12C49.5625 12.0311 40.6563 16.9198 30.1563 22.8983Z" fill="#BFA286"/>
<path d="M19.1563 13.6192C18.9688 13.8371 17.75 17.3246 16.4063 21.3414C15.0625 25.3582 13.9063 28.8456 13.8125 29.0325C13.7188 29.3438 41.1875 13.9617 41.8438 13.3701C41.9063 13.3078 36.9063 13.2455 30.7188 13.2455C22.0625 13.2455 19.375 13.3389 19.1563 13.6192Z" fill="#BFA286"/>
<path d="M58.1562 13.3701C58.8125 13.9617 86.2812 29.3438 86.1875 29.0325C86.0938 28.8456 84.9375 25.3582 83.5938 21.3414C82.25 17.3246 81.0313 13.8371 80.8438 13.6192C80.625 13.3389 77.9375 13.2455 69.2813 13.2455C63.0938 13.2455 58.0938 13.3078 58.1562 13.3701Z" fill="#BFA286"/>
<path d="M42.125 24.7043C38.5625 26.6971 35.6875 28.4408 35.7188 28.5654C35.75 28.69 38.6563 31.1187 42.1875 33.9834L48.5938 39.1523L48.6875 34.6062C48.7188 32.1151 48.7188 28.0361 48.6875 25.545L48.5938 21.03L42.125 24.7043Z" fill="#BFA286"/>
<path d="M51.25 30.0289C51.25 35.011 51.3125 39.09 51.375 39.09C51.5938 39.09 64.2188 28.8145 64.2812 28.5654C64.3438 28.3786 61.9688 26.9774 53.375 22.1821L51.25 20.9677V30.0289Z" fill="#BFA286"/>
<path d="M23.5312 35.2912L14.4063 40.4912L22.375 40.5847C26.75 40.6158 33.9062 40.6158 38.3125 40.5847L46.3125 40.4912L39.875 35.2601C36.3125 32.3954 33.25 30.06 33.0312 30.06C32.8438 30.06 28.5625 32.4265 23.5312 35.2912Z" fill="#BFA286"/>
<path d="M60.0625 35.2912L53.6875 40.4912L61.6875 40.5847C66.0938 40.6158 73.2813 40.6158 77.625 40.5847L85.5938 40.4912L76.4375 35.2601C71.375 32.3954 67.0625 30.06 66.8438 30.0912C66.5938 30.0912 63.5625 32.4576 60.0625 35.2912Z" fill="#BFA286"/>
<path d="M13.75 80.5035H41.25V69.6675C41.25 61.6651 41.3438 58.7381 41.625 58.4579C42.1562 57.9285 57.8438 57.9285 58.375 58.4579C58.6563 58.7381 58.75 61.6651 58.75 69.6675V80.5035H86.25V43.138H13.75V80.5035ZM35.875 47.2482C36.375 47.7464 36.375 53.4758 35.875 53.974C35.3438 54.5033 19.6562 54.5033 19.125 53.974C18.625 53.4758 18.625 47.7464 19.125 47.2482C19.6562 46.7188 35.3438 46.7188 35.875 47.2482ZM58.375 47.2482C58.875 47.7464 58.875 53.4758 58.375 53.974C57.8438 54.5033 42.1562 54.5033 41.625 53.974C41.375 53.7249 41.25 52.5105 41.25 50.6111C41.25 48.7117 41.375 47.4973 41.625 47.2482C42.1562 46.7188 57.8438 46.7188 58.375 47.2482ZM80.875 47.2482C81.375 47.7464 81.375 53.4758 80.875 53.974C80.3438 54.5033 64.6563 54.5033 64.125 53.974C63.625 53.4758 63.625 47.7464 64.125 47.2482C64.6563 46.7188 80.3438 46.7188 80.875 47.2482ZM35.875 58.4579C36.4062 58.9872 36.4062 72.1274 35.875 72.6568C35.3438 73.1861 19.6562 73.1861 19.125 72.6568C18.5938 72.1274 18.5938 58.9872 19.125 58.4579C19.6562 57.9285 35.3438 57.9285 35.875 58.4579ZM80.875 58.4579C81.4063 58.9872 81.4063 72.1274 80.875 72.6568C80.3438 73.1861 64.6563 73.1861 64.125 72.6568C63.5938 72.1274 63.5938 58.9872 64.125 58.4579C64.6563 57.9285 80.3438 57.9285 80.875 58.4579Z" fill="#BFA286"/>
<path d="M21.25 51.8566H33.75V49.3656H21.25V51.8566Z" fill="#BFA286"/>
<path d="M43.75 51.8566H56.25V49.3656H43.75V51.8566Z" fill="#BFA286"/>
<path d="M66.25 51.8566H78.75V49.3656H66.25V51.8566Z" fill="#BFA286"/>
<path d="M21.25 70.5394H33.75V60.5752H21.25V70.5394Z" fill="#BFA286"/>
<path d="M66.25 70.5394H78.75V60.5752H66.25V70.5394Z" fill="#BFA286"/>
<path d="M43.75 64.3118H56.25V60.5752H43.75V64.3118Z" fill="#BFA286"/>
<path d="M43.75 80.5035H48.75V66.8028H43.75V80.5035Z" fill="#BFA286"/>
<path d="M51.25 80.5035H56.25V66.8028H51.25V80.5035Z" fill="#BFA286"/>
<path d="M10.375 83.3682C10.1563 83.5862 10 84.5203 10 85.4856C10 86.4509 10.1563 87.385 10.375 87.603C10.9063 88.1323 89.0938 88.1323 89.625 87.603C90.125 87.1048 90.125 83.8664 89.625 83.3682C89.0938 82.8389 10.9063 82.8389 10.375 83.3682Z" fill="#BFA286"/>
</svg>
