<svg width="104" height="100" viewBox="0 0 104 100" fill="none" xmlns="http://www.w3.org/2000/svg">
<path fill-rule="evenodd" clip-rule="evenodd" d="M52.0331 0L0 51.67L3.92511 55.5674L52.0331 7.79521V0ZM52.0331 14.8109L7.45761 59.0753L11.3825 62.973L52.0331 22.6059V14.8109ZM52.0331 29.6216L14.915 66.4809L18.8399 70.3784L52.0331 37.4168V29.6216ZM52.0331 44.4325L22.3724 73.8862L26.2975 77.7837L52.0331 52.2278V44.4325ZM52.0331 59.2435L29.83 81.2916L33.7549 85.1893L52.0331 67.0385V59.2435ZM52.0331 74.0542L37.2874 88.6972L41.2123 92.5946L52.0331 81.8494V74.0542ZM52.0331 88.8651L44.7448 96.1025L48.6699 100L52.0331 96.6603V88.8651Z" fill="#BFA286"/>
<path fill-rule="evenodd" clip-rule="evenodd" d="M52.0331 0L104 51.5804L100.075 55.4779L52.0331 7.79521V0ZM52.0331 14.8109L96.5426 58.9858L92.6177 62.8833L52.0331 22.6059V14.8109ZM52.0331 29.6216L89.0852 66.3911L85.1601 70.2888L52.0331 37.4168V29.6216ZM52.0331 44.4325L81.6276 73.7967L77.7027 77.6942L52.0331 52.2278V44.4325ZM52.0331 59.2435L74.1702 81.202L70.2453 85.0995L52.0331 67.0385V59.2435ZM52.0331 74.0542L66.7128 88.6074L62.7877 92.5051L52.0331 81.8494V74.0542ZM52.0331 88.8651L59.2552 96.013L55.3303 99.9105L52.0331 96.6603V88.8651Z" fill="#BFA286"/>
</svg>
