<svg width="165" height="47" viewBox="0 0 165 47" fill="none" xmlns="http://www.w3.org/2000/svg">
<g clip-path="url(#clip0_62_20)">
<path d="M1.83659 40.2893L2.8314 37.15C3.81771 37.4392 4.64246 37.5243 5.30567 37.4051C5.98588 37.2691 6.58957 36.7926 7.11674 35.9758L7.98402 34.6741L8.36663 34.2403L14.2845 22.6525H18.3403L10.7389 36.7926C10.0587 38.0688 9.2509 39.0472 8.31562 39.7279C7.39733 40.4085 6.38551 40.7914 5.28017 40.8764C4.17482 40.9785 3.02696 40.7827 1.83659 40.2893ZM8.2901 37.6859L0.229584 22.6525H4.64246L10.5603 34.6486L8.2901 37.6859ZM25.5065 40.7233C24.0272 40.7233 22.7093 40.4255 21.5529 39.83C20.3965 39.2173 19.4867 38.3751 18.8234 37.303C18.1774 36.2311 17.8543 35.0145 17.8543 33.6532C17.8543 32.2749 18.1774 31.0582 18.8234 30.0032C19.4867 28.9312 20.3965 28.0974 21.5529 27.5019C22.7093 26.8893 24.0272 26.5831 25.5065 26.5831C26.952 26.5831 28.2104 26.8893 29.2817 27.5019C30.3531 28.0974 31.1439 28.9568 31.654 30.0798L28.5675 31.7389C28.2104 31.0923 27.7598 30.6158 27.2155 30.3095C26.6885 30.0032 26.1103 29.8502 25.4811 29.8502C24.8009 29.8502 24.1886 30.0032 23.6446 30.3095C23.1004 30.6158 22.6668 31.0498 22.3437 31.6112C22.0376 32.1728 21.8844 32.8533 21.8844 33.6532C21.8844 34.4529 22.0376 35.1336 22.3437 35.695C22.6668 36.2566 23.1004 36.6905 23.6446 36.9967C24.1886 37.303 24.8009 37.4562 25.4811 37.4562C26.1103 37.4562 26.6885 37.3116 27.2155 37.0222C27.7598 36.716 28.2104 36.2311 28.5675 35.5675L31.654 37.2521C31.1439 38.358 30.3531 39.2173 29.2817 39.83C28.2104 40.4255 26.952 40.7233 25.5065 40.7233ZM42.2856 40.519V37.8391L42.0306 37.2521V32.4536C42.0306 31.6028 41.767 30.9391 41.2399 30.4627C40.7297 29.9862 39.939 29.7481 38.8676 29.7481C38.1363 29.7481 37.4137 29.8672 36.6993 30.1053C36.0022 30.3265 35.407 30.6328 34.9138 31.0241L33.4854 28.2422C34.2336 27.7147 35.1349 27.3063 36.1892 27.0169C37.2436 26.7277 38.3149 26.5831 39.4032 26.5831C41.4948 26.5831 43.1189 27.0765 44.2752 28.0635C45.4316 29.0503 46.0099 30.5903 46.0099 32.6832V40.519H42.2856ZM38.1023 40.7233C37.0311 40.7233 36.1126 40.5446 35.3475 40.1872C34.5822 39.813 33.9955 39.3109 33.5874 38.6813C33.1793 38.0518 32.9752 37.3455 32.9752 36.5629C32.9752 35.7462 33.1709 35.0315 33.5619 34.4188C33.9701 33.8063 34.6077 33.3299 35.475 32.9895C36.3423 32.6323 37.4731 32.4536 38.8676 32.4536H42.5153V34.7762H39.3012C38.3659 34.7762 37.7198 34.9294 37.3626 35.2357C37.0225 35.542 36.8525 35.9247 36.8525 36.3842C36.8525 36.8947 37.0481 37.303 37.4392 37.6093C37.8473 37.8987 38.3999 38.0433 39.0971 38.0433C39.7604 38.0433 40.3555 37.8901 40.8827 37.5838C41.4098 37.2605 41.7925 36.7926 42.0306 36.18L42.6428 38.0177C42.3537 38.9026 41.8266 39.5747 41.0613 40.0342C40.296 40.4935 39.3098 40.7233 38.1023 40.7233ZM52.1959 37.8135L48.2678 37.2521C48.7609 37.2521 49.1604 37.1074 49.4666 36.818C49.7727 36.5118 50.0107 36.095 50.1808 35.5675C50.3508 35.0229 50.4783 34.4104 50.5635 33.7298C50.6485 33.032 50.708 32.3004 50.7419 31.5348L50.9205 26.7872H62.8838V38.7325H58.9045V30.0543H54.4151L54.3385 31.8154C54.3046 32.5471 54.2621 33.2448 54.211 33.9083C54.1601 34.572 54.0581 35.1761 53.9049 35.7205C53.7688 36.248 53.5648 36.6991 53.2928 37.0734C53.0206 37.4308 52.655 37.6775 52.1959 37.8135ZM47.8085 43.4798V37.2521H64.8479V43.4798H61.1493V40.519H51.5072V43.4798H47.8085ZM74.2392 40.5446L67.352 40.519V26.7872H71.3058V31.1774H74.7748C76.5774 31.1944 77.9464 31.6028 78.8817 32.4025C79.8339 33.1853 80.3101 34.2998 80.3101 35.7462C80.3101 37.2605 79.7743 38.4431 78.7031 39.2939C77.6317 40.1277 76.1438 40.5446 74.2392 40.5446ZM73.882 37.7114C74.6473 37.7284 75.234 37.5668 75.6421 37.2266C76.0502 36.8862 76.2543 36.3758 76.2543 35.695C76.2543 35.0145 76.0502 34.5295 75.6421 34.2403C75.234 33.934 74.6473 33.7723 73.882 33.7553L71.3058 33.7298V37.7114H73.882ZM89.6069 40.8254C88.4846 40.8254 87.4643 40.6638 86.546 40.3405C85.6276 40.0001 84.8284 39.481 84.1483 38.7834C83.485 38.0688 82.9663 37.1584 82.5922 36.0524C82.2352 34.9463 82.0566 33.6276 82.0566 32.0962C82.0566 31.0073 82.15 30.0118 82.3372 29.1099C82.5243 28.2081 82.8049 27.3914 83.1789 26.6597C83.553 25.9109 84.0292 25.2559 84.6073 24.6943C85.2026 24.1158 85.8912 23.6393 86.6735 23.265C87.4727 22.8737 88.3741 22.5758 89.3774 22.3717L95.9073 21.0699L96.4431 24.4901L90.6783 25.6388C90.3381 25.7068 89.947 25.8002 89.5049 25.9194C89.0797 26.0215 88.6461 26.1831 88.2039 26.4044C87.7788 26.6256 87.3793 26.9405 87.0051 27.3488C86.6481 27.7402 86.3588 28.2591 86.1379 28.9057C85.9168 29.5353 85.8062 30.3181 85.8062 31.254C85.8062 31.5432 85.8148 31.7644 85.8318 31.9175C85.8657 32.0707 85.8912 32.2324 85.9082 32.4025C85.9423 32.5727 85.9593 32.8365 85.9593 33.1937L84.6839 31.9431C85.0579 31.1433 85.5342 30.4627 86.1123 29.9011C86.7076 29.3397 87.3877 28.9143 88.153 28.6249C88.9352 28.3186 89.8025 28.1656 90.7548 28.1656C92.0471 28.1656 93.178 28.4293 94.1474 28.9568C95.1336 29.4673 95.8989 30.1904 96.4431 31.1262C96.9873 32.0621 97.2593 33.1257 97.2593 34.3167C97.2593 35.61 96.9362 36.75 96.29 37.737C95.6437 38.7068 94.7425 39.4642 93.5862 40.0085C92.4468 40.5531 91.1204 40.8254 89.6069 40.8254ZM89.8109 37.737C90.4742 37.737 91.0609 37.5924 91.5711 37.303C92.0812 36.9967 92.4723 36.597 92.7445 36.1034C93.0335 35.5929 93.178 35.0229 93.178 34.3933C93.178 33.7808 93.0335 33.2362 92.7445 32.7599C92.4723 32.2833 92.0812 31.909 91.5711 31.6369C91.0609 31.3645 90.4658 31.2283 89.7855 31.2283C89.1222 31.2283 88.5271 31.3645 87.9999 31.6369C87.4727 31.892 87.0646 32.2494 86.7756 32.7087C86.4865 33.1682 86.342 33.7042 86.342 34.3167C86.342 34.9463 86.4865 35.5249 86.7756 36.0524C87.0816 36.5629 87.4898 36.9713 87.9999 37.2775C88.5271 37.5838 89.1308 37.737 89.8109 37.737ZM107.949 40.519V37.8391L107.694 37.2521V32.4536C107.694 31.6028 107.43 30.9391 106.903 30.4627C106.393 29.9862 105.602 29.7481 104.531 29.7481C103.799 29.7481 103.077 29.8672 102.362 30.1053C101.665 30.3265 101.07 30.6328 100.577 31.0241L99.1485 28.2422C99.8968 27.7147 100.798 27.3063 101.852 27.0169C102.907 26.7277 103.978 26.5831 105.066 26.5831C107.158 26.5831 108.782 27.0765 109.938 28.0635C111.095 29.0503 111.673 30.5903 111.673 32.6832V40.519H107.949ZM103.765 40.7233C102.694 40.7233 101.776 40.5446 101.011 40.1872C100.245 39.813 99.6586 39.3109 99.2505 38.6813C98.8424 38.0518 98.6383 37.3455 98.6383 36.5629C98.6383 35.7462 98.834 35.0315 99.2251 34.4188C99.6332 33.8063 100.271 33.3299 101.138 32.9895C102.005 32.6323 103.136 32.4536 104.531 32.4536H108.178V34.7762H104.964C104.029 34.7762 103.383 34.9294 103.026 35.2357C102.686 35.542 102.516 35.9247 102.516 36.3842C102.516 36.8947 102.711 37.303 103.102 37.6093C103.51 37.8987 104.063 38.0433 104.76 38.0433C105.423 38.0433 106.019 37.8901 106.546 37.5838C107.073 37.2605 107.456 36.7926 107.694 36.18L108.306 38.0177C108.017 38.9026 107.49 39.5747 106.724 40.0342C105.959 40.4935 104.973 40.7233 103.765 40.7233Z" fill="white"/>
<path d="M123.504 40.519V27.1738L124.963 28.6333H120.587V25.9227H126.88V40.519H123.504ZM135.604 40.7693C134.589 40.7693 133.582 40.6373 132.582 40.3732C131.582 40.0951 130.734 39.7059 130.04 39.2054L131.352 36.6197C131.908 37.0229 132.554 37.3426 133.29 37.579C134.027 37.8152 134.77 37.9335 135.52 37.9335C136.368 37.9335 137.034 37.7667 137.521 37.433C138.007 37.0994 138.25 36.6406 138.25 36.0568C138.25 35.5007 138.035 35.0627 137.604 34.743C137.173 34.4233 136.479 34.2635 135.52 34.2635H133.978V32.0323L138.042 27.4239L138.417 28.6333H130.769V25.9227H140.98V28.112L136.937 32.7205L135.228 31.7403H136.208C138 31.7403 139.355 32.1435 140.271 32.9498C141.189 33.756 141.647 34.7917 141.647 36.0568C141.647 36.8769 141.432 37.6484 141.001 38.3713C140.57 39.0803 139.91 39.6572 139.021 40.102C138.132 40.5469 136.993 40.7693 135.604 40.7693ZM146.915 40.519V27.1738L148.374 28.6333H143.997V25.9227H150.291V40.519H146.915Z" fill="#BFA286"/>
<path fill-rule="evenodd" clip-rule="evenodd" d="M165 23.6722L136.318 8.64364V0L165 15.0286V23.6722Z" fill="white"/>
<path fill-rule="evenodd" clip-rule="evenodd" d="M136.319 8.62156L120.409 16.9577V14.1425L136.319 5.8064V2.88878L120.409 11.2249V8.33615L136.319 4.57764e-05V8.62156Z" fill="#BFA286"/>
<path fill-rule="evenodd" clip-rule="evenodd" d="M165 17.9173L136.318 2.88875V5.80635L165 20.8349V17.9173Z" fill="#BFA286"/>
</g>
<defs>
<clipPath id="clip0_62_20">
<rect width="165" height="47" fill="white"/>
</clipPath>
</defs>
</svg>
