<svg width="321" height="293" viewBox="0 0 321 293" fill="none" xmlns="http://www.w3.org/2000/svg">
<g clip-path="url(#clip0_2072_2956)">
<path fill-rule="evenodd" clip-rule="evenodd" d="M22.2795 205.334V290.83H46.582V185.835H1.27734V205.334H22.2795ZM87.6266 289.78C94.8273 291.68 102.078 292.63 109.379 292.63C119.38 292.63 127.581 291.03 133.981 287.83C140.382 284.63 145.132 280.48 148.233 275.381C151.333 270.181 152.883 264.632 152.883 258.732C152.883 249.632 149.583 242.182 142.982 236.383C138.36 232.322 132.194 229.682 124.483 228.465L148.083 201.584V185.835H74.5749V205.334H119.253L97.6774 229.783V245.832H108.779C115.679 245.832 120.68 246.982 123.78 249.282C126.88 251.582 128.43 254.732 128.43 258.732C128.43 262.931 126.681 266.231 123.18 268.631C119.68 271.031 114.879 272.231 108.779 272.231C103.378 272.231 98.0274 271.381 92.7271 269.681C87.4264 267.981 82.7761 265.681 78.7753 262.782L69.3246 281.38C74.3253 284.98 80.4258 287.781 87.6266 289.78ZM190.806 205.334V290.83H215.109V185.835H169.805V205.334H190.806Z" fill="#BFA286"/>
<path fill-rule="evenodd" clip-rule="evenodd" d="M321 170.279L114.527 62.1754V0L321 108.104V170.279Z" fill="white"/>
<path fill-rule="evenodd" clip-rule="evenodd" d="M114.527 62.0163L0 121.979V101.73L114.527 41.7663V62.0163ZM114.527 20.7794V0L0 59.9633V80.7428L114.527 20.7794Z" fill="#BFA286"/>
<path fill-rule="evenodd" clip-rule="evenodd" d="M321 128.883L114.527 20.7793V41.7662L321 149.869V128.883Z" fill="#BFA286"/>
</g>
<defs>
<clipPath id="clip0_2072_2956">
<rect width="321" height="293" fill="white"/>
</clipPath>
</defs>
</svg>
