<svg width="36" height="36" viewBox="0 0 36 36" fill="none" xmlns="http://www.w3.org/2000/svg">
<g clip-path="url(#clip0_62_37)">
<path d="M18 0C13.2272 0 8.64563 1.89759 5.27344 5.27203C1.89777 8.64781 0.000935072 13.226 0 18C0 22.772 1.89844 27.3535 5.27344 30.728C8.64563 34.1024 13.2272 36 18 36C22.7728 36 27.3544 34.1024 30.7266 30.728C34.1016 27.3535 36 22.772 36 18C36 13.228 34.1016 8.64647 30.7266 5.27203C27.3544 1.89759 22.7728 0 18 0Z" fill="url(#paint0_linear_62_37)"/>
<path d="M8.1463 17.8098C13.3944 15.5238 16.8932 14.0166 18.6426 13.2885C23.6432 11.2092 24.681 10.8481 25.3588 10.8358C25.5079 10.8334 25.8397 10.8703 26.0563 11.0454C26.2363 11.193 26.2869 11.3927 26.3122 11.5329C26.3347 11.673 26.3657 11.9922 26.3404 12.2414C26.0704 15.0876 24.8976 21.9946 24.3013 25.1825C24.051 26.5314 23.5532 26.9837 23.0722 27.0278C22.026 27.124 21.2329 26.3371 20.2204 25.6736C18.6369 24.6349 17.7426 23.9886 16.2041 22.9753C14.4266 21.8042 15.5797 21.1604 16.5922 20.1085C16.8566 19.8332 21.4635 15.6439 21.5507 15.264C21.5619 15.2164 21.5732 15.0393 21.4663 14.9459C21.3622 14.8522 21.2076 14.8843 21.0951 14.9096C20.9347 14.9456 18.4063 16.6185 13.5013 19.9279C12.7841 20.4213 12.1344 20.6617 11.5494 20.6491C10.9082 20.6353 9.67068 20.2857 8.75099 19.987C7.62599 19.6205 6.7288 19.4268 6.80755 18.8043C6.84693 18.4803 7.29411 18.1488 8.1463 17.8098Z" fill="white"/>
</g>
<defs>
<linearGradient id="paint0_linear_62_37" x1="1800" y1="0" x2="1800" y2="3600" gradientUnits="userSpaceOnUse">
<stop stop-color="#2AABEE"/>
<stop offset="1" stop-color="#229ED9"/>
</linearGradient>
<clipPath id="clip0_62_37">
<rect width="36" height="36" fill="white"/>
</clipPath>
</defs>
</svg>
